{
  "accessors": [
    {
      "bufferView": 2,
      "componentType": 5126,
      "count": 1697,
      "max": [
        146.80909729003906,
        161.062744140625,
        1648.282470703125
      ],
      "min": [
        -147.27719116210938,
        -103.12384796142578,
        771.4793701171875
      ],
      "type": "VEC3"
    },
    {
      "bufferView": 2,
      "byteOffset": 20364,
      "componentType": 5126,
      "count": 1697,
      "max": [
        0.9937757849693298,
        0.9998890161514282,
        0.7723912000656128
      ],
      "min": [
        -0.9946083426475525,
        -0.9998561143875122,
        -0.5424990653991699
      ],
      "type": "VEC3"
    },
    {
      "bufferView": 1,
      "componentType": 5126,
      "count": 1697,
      "max": [
        0.15062099695205688,
        1.6204780340194702
      ],
      "min": [
        -0.14073500037193298,
        0.7051060199737549
      ],
      "type": "VEC2"
    },
    {
      "bufferView": 0,
      "componentType": 5125,
      "count": 8910,
      "type": "SCALAR"
    },
    {
      "bufferView": 2,
      "byteOffset": 40728,
      "componentType": 5126,
      "count": 7347,
      "max": [
        74.51722717285156,
        152.37522888183594,
        1876.001708984375
      ],
      "min": [
        -78.8711929321289,
        -58.494293212890625,
        1685.936279296875
      ],
      "type": "VEC3"
    },
    {
      "bufferView": 2,
      "byteOffset": 128892,
      "componentType": 5126,
      "count": 7347,
      "max": [
        0.9997518658638,
        0.9991523623466492,
        0.9997870922088623
      ],
      "min": [
        -0.999871551990509,
        -0.9998233318328857,
        -0.9988284707069397
      ],
      "type": "VEC3"
    },
    {
      "bufferView": 1,
      "byteOffset": 13576,
      "componentType": 5126,
      "count": 7347,
      "max": [
        3.986999988555908,
        0.9526000022888184
      ],
      "min": [
        3.0167999267578125,
        0.022600000724196434
      ],
      "type": "VEC2"
    },
    {
      "bufferView": 0,
      "byteOffset": 35640,
      "componentType": 5125,
      "count": 42312,
      "type": "SCALAR"
    },
    {
      "bufferView": 2,
      "byteOffset": 217056,
      "componentType": 5126,
      "count": 1636,
      "max": [
        112.68775177001953,
        107.08189392089844,
        107.16673278808594
      ],
      "min": [
        -115.61202239990234,
        67.3827896118164,
        1.4776920080184937
      ],
      "type": "VEC3"
    },
    {
      "bufferView": 2,
      "byteOffset": 236688,
      "componentType": 5126,
      "count": 1636,
      "max": [
        0.9998602271080017,
        0.9999586343765259,
        0.9999979734420776
      ],
      "min": [
        -0.9998603463172913,
        -0.9988686442375183,
        -1.0
      ],
      "type": "VEC3"
    },
    {
      "bufferView": 1,
      "byteOffset": 72352,
      "componentType": 5126,
      "count": 1636,
      "max": [
        0.9768229722976685,
        0.974511981010437
      ],
      "min": [
        0.020116999745368958,
        0.4248279929161072
      ],
      "type": "VEC2"
    },
    {
      "bufferView": 0,
      "byteOffset": 204888,
      "componentType": 5125,
      "count": 8556,
      "type": "SCALAR"
    },
    {
      "bufferView": 2,
      "byteOffset": 256320,
      "componentType": 5126,
      "count": 10736,
      "max": [
        613.1398315429688,
        113.60176086425781,
        1585.2882080078125
      ],
      "min": [
        -616.0843505859375,
        -83.96556091308594,
        993.0377197265625
      ],
      "type": "VEC3"
    },
    {
      "bufferView": 2,
      "byteOffset": 385152,
      "componentType": 5126,
      "count": 10736,
      "max": [
        0.9999978542327881,
        0.999732494354248,
        0.9588227868080139
      ],
      "min": [
        -0.9999978542327881,
        -0.9999030232429504,
        -0.9990635514259338
      ],
      "type": "VEC3"
    },
    {
      "bufferView": 1,
      "byteOffset": 85440,
      "componentType": 5126,
      "count": 10736,
      "max": [
        2.9905710220336914,
        0.9788359999656677
      ],
      "min": [
        2.0094289779663086,
        0.021164000034332275
      ],
      "type": "VEC2"
    },
    {
      "bufferView": 0,
      "byteOffset": 239112,
      "componentType": 5125,
      "count": 60408,
      "type": "SCALAR"
    },
    {
      "bufferView": 2,
      "byteOffset": 513984,
      "componentType": 5126,
      "count": 7019,
      "max": [
        179.85415649414063,
        138.9813232421875,
        1699.6741943359375
      ],
      "min": [
        -182.79864501953125,
        -98.70502471923828,
        886.7517700195313
      ],
      "type": "VEC3"
    },
    {
      "bufferView": 2,
      "byteOffset": 598212,
      "componentType": 5126,
      "count": 7019,
      "max": [
        0.9999039769172668,
        0.9998933672904968,
        0.9867536425590515
      ],
      "min": [
        -0.9999039769172668,
        -0.9999996423721313,
        -0.9996472597122192
      ],
      "type": "VEC3"
    },
    {
      "bufferView": 1,
      "byteOffset": 171328,
      "componentType": 5126,
      "count": 7019,
      "max": [
        1.973660945892334,
        0.9405270218849182
      ],
      "min": [
        1.0264140367507935,
        0.05372700095176697
      ],
      "type": "VEC2"
    },
    {
      "bufferView": 0,
      "byteOffset": 480744,
      "componentType": 5125,
      "count": 40644,
      "type": "SCALAR"
    },
    {
      "bufferView": 2,
      "byteOffset": 682440,
      "componentType": 5126,
      "count": 596,
      "max": [
        46.38490295410156,
        -24.479198455810547,
        1775.0814208984375
      ],
      "min": [
        -48.5743408203125,
        -57.49026870727539,
        1742.221923828125
      ],
      "type": "VEC3"
    },
    {
      "bufferView": 2,
      "byteOffset": 689592,
      "componentType": 5126,
      "count": 596,
      "max": [
        0.9999980926513672,
        0.9984536170959473,
        0.9988563656806946
      ],
      "min": [
        -0.9999948740005493,
        -0.9868782162666321,
        -0.999289870262146
      ],
      "type": "VEC3"
    },
    {
      "bufferView": 1,
      "byteOffset": 227480,
      "componentType": 5126,
      "count": 596,
      "max": [
        4.988100051879883,
        1.0
      ],
      "min": [
        4.009099960327148,
        0.0
      ],
      "type": "VEC2"
    },
    {
      "bufferView": 0,
      "byteOffset": 643320,
      "componentType": 5125,
      "count": 3552,
      "type": "SCALAR"
    },
    {
      "bufferView": 2,
      "byteOffset": 696744,
      "componentType": 5126,
      "count": 8187,
      "max": [
        80.16914367675781,
        110.05610656738281,
        1861.917724609375
      ],
      "min": [
        -83.11380004882813,
        -89.508544921875,
        1659.248046875
      ],
      "type": "VEC3"
    },
    {
      "bufferView": 2,
      "byteOffset": 794988,
      "componentType": 5126,
      "count": 8187,
      "max": [
        0.9999479055404663,
        0.9999988675117493,
        0.9999431371688843
      ],
      "min": [
        -0.9999479055404663,
        -0.9999683499336243,
        -0.9999744892120361
      ],
      "type": "VEC3"
    },
    {
      "bufferView": 1,
      "byteOffset": 232248,
      "componentType": 5126,
      "count": 8187,
      "max": [
        0.9927380084991455,
        0.9819070100784302
      ],
      "min": [
        0.007261999882757664,
        0.44063299894332886
      ],
      "type": "VEC2"
    },
    {
      "bufferView": 0,
      "byteOffset": 657528,
      "componentType": 5125,
      "count": 48072,
      "type": "SCALAR"
    },
    {
      "bufferView": 2,
      "byteOffset": 893232,
      "componentType": 5126,
      "count": 6878,
      "max": [
        175.577880859375,
        106.53700256347656,
        915.4635620117188
      ],
      "min": [
        -178.52236938476563,
        -102.70589447021484,
        15.049161911010742
      ],
      "type": "VEC3"
    },
    {
      "bufferView": 2,
      "byteOffset": 975768,
      "componentType": 5126,
      "count": 6878,
      "max": [
        0.999999463558197,
        0.9999148845672607,
        0.9960711002349854
      ],
      "min": [
        -0.999999463558197,
        -0.998925507068634,
        -0.9999257326126099
      ],
      "type": "VEC3"
    },
    {
      "bufferView": 1,
      "byteOffset": 297744,
      "componentType": 5126,
      "count": 6878,
      "max": [
        3.990000009536743,
        0.9912070035934448
      ],
      "min": [
        3.009999990463257,
        0.008793000131845474
      ],
      "type": "VEC2"
    },
    {
      "bufferView": 0,
      "byteOffset": 849816,
      "componentType": 5125,
      "count": 38850,
      "type": "SCALAR"
    },
    {
      "bufferView": 2,
      "byteOffset": 1058304,
      "componentType": 5126,
      "count": 3580,
      "max": [
        50.284278869628906,
        -44.6553955078125,
        1767.2666015625
      ],
      "min": [
        -53.22791290283203,
        -66.48712158203125,
        1748.88037109375
      ],
      "type": "VEC3"
    },
    {
      "bufferView": 2,
      "byteOffset": 1101264,
      "componentType": 5126,
      "count": 3580,
      "max": [
        0.9985881447792053,
        0.8823714256286621,
        0.999987781047821
      ],
      "min": [
        -0.9988043308258057,
        -0.9855652451515198,
        -0.99992835521698
      ],
      "type": "VEC3"
    },
    {
      "bufferView": 1,
      "byteOffset": 352768,
      "componentType": 5126,
      "count": 3580,
      "max": [
        5.868500232696533,
        0.8511999845504761
      ],
      "min": [
        5.3927001953125,
        0.17569999396800995
      ],
      "type": "VEC2"
    },
    {
      "bufferView": 0,
      "byteOffset": 1005216,
      "componentType": 5125,
      "count": 8592,
      "type": "SCALAR"
    },
    {
      "bufferView": 2,
      "byteOffset": 1144224,
      "componentType": 5126,
      "count": 5730,
      "max": [
        32.90144348144531,
        8.067246437072754,
        1730.1016845703125
      ],
      "min": [
        -35.84612274169922,
        -69.63225555419922,
        1681.60107421875
      ],
      "type": "VEC3"
    },
    {
      "bufferView": 2,
      "byteOffset": 1212984,
      "componentType": 5126,
      "count": 5730,
      "max": [
        0.9997572302818298,
        0.9997431039810181,
        0.9997492432594299
      ],
      "min": [
        -0.9997572302818298,
        -0.9999538660049438,
        -0.9999933838844299
      ],
      "type": "VEC3"
    },
    {
      "bufferView": 1,
      "byteOffset": 381408,
      "componentType": 5126,
      "count": 5730,
      "max": [
        0.9869999885559082,
        0.9822999835014343
      ],
      "min": [
        0.007899999618530273,
        0.013399999588727951
      ],
      "type": "VEC2"
    },
    {
      "bufferView": 0,
      "byteOffset": 1039584,
      "componentType": 5125,
      "count": 28776,
      "type": "SCALAR"
    },
    {
      "bufferView": 2,
      "byteOffset": 1281744,
      "componentType": 5126,
      "count": 4446,
      "max": [
        140.71865844726563,
        108.122802734375,
        154.39561462402344
      ],
      "min": [
        -143.64308166503906,
        -109.048828125,
        0.570294976234436
      ],
      "type": "VEC3"
    },
    {
      "bufferView": 2,
      "byteOffset": 1335096,
      "componentType": 5126,
      "count": 4446,
      "max": [
        0.9999238848686218,
        0.9999364614486694,
        0.999987781047821
      ],
      "min": [
        -0.9999260902404785,
        -0.9996893405914307,
        -0.9999887347221375
      ],
      "type": "VEC3"
    },
    {
      "bufferView": 1,
      "byteOffset": 427248,
      "componentType": 5126,
      "count": 4446,
      "max": [
        0.9243940114974976,
        0.9760469794273376
      ],
      "min": [
        0.010129000060260296,
        0.014995000325143337
      ],
      "type": "VEC2"
    },
    {
      "bufferView": 0,
      "byteOffset": 1154688,
      "componentType": 5125,
      "count": 24156,
      "type": "SCALAR"
    },
    {
      "bufferView": 2,
      "byteOffset": 1388448,
      "componentType": 5126,
      "count": 1634,
      "max": [
        138.7187042236328,
        107.83609008789063,
        110.3075942993164
      ],
      "min": [
        -141.64373779296875,
        -100.14447021484375,
        0.24252299964427948
      ],
      "type": "VEC3"
    },
    {
      "bufferView": 2,
      "byteOffset": 1408056,
      "componentType": 5126,
      "count": 1634,
      "max": [
        0.9996045231819153,
        0.9550592303276062,
        0.9708022475242615
      ],
      "min": [
        -0.9993725419044495,
        -0.9973461031913757,
        -0.999984860420227
      ],
      "type": "VEC3"
    },
    {
      "bufferView": 1,
      "byteOffset": 462816,
      "componentType": 5126,
      "count": 1634,
      "max": [
        0.9288700222969055,
        0.15797699987888336
      ],
      "min": [
        0.6628029942512512,
        0.0361270010471344
      ],
      "type": "VEC2"
    },
    {
      "bufferView": 0,
      "byteOffset": 1251312,
      "componentType": 5125,
      "count": 8226,
      "type": "SCALAR"
    }
  ],
  "asset": {
    "extras": {
      "author": "samsikua (https://sketchfab.com/samsikua)",
      "license": "CC-BY-4.0 (http://creativecommons.org/licenses/by/4.0/)",
      "source": "https://sketchfab.com/3d-models/dress-e110815707f54793ae91f89d2c5bb06a",
      "title": "Dress"
    },
    "generator": "Sketchfab-13.74.0",
    "version": "2.0"
  },
  "bufferViews": [
    {
      "buffer": 0,
      "byteLength": 1284216,
      "name": "floatBufferViews",
      "target": 34963
    },
    {
      "buffer": 0,
      "byteLength": 475888,
      "byteOffset": 1284216,
      "byteStride": 8,
      "name": "floatBufferViews",
      "target": 34962
    },
    {
      "buffer": 0,
      "byteLength": 1427664,
      "byteOffset": 1760104,
      "byteStride": 12,
      "name": "floatBufferViews",
      "target": 34962
    }
  ],
  "buffers": [
    {
      "byteLength": 3187768,
      "uri": "scene.bin"
    }
  ],
  "images": [
    {
      "uri": "textures/FABRIC_1_FRONT_1309_baseColor.png"
    }
  ],
  "materials": [
    {
      "doubleSided": true,
      "emissiveTexture": {
        "index": 0
      },
      "name": "FABRIC_1_FRONT_1309",
      "pbrMetallicRoughness": {
        "baseColorTexture": {
          "index": 0
        },
        "metallicFactor": 0.0,
        "roughnessFactor": 0.9827475502465659
      }
    },
    {
      "doubleSided": true,
      "name": "Feifei_hair_opencollada_hair2",
      "pbrMetallicRoughness": {
        "metallicFactor": 0.0,
        "roughnessFactor": 0.9949410206033711
      }
    },
    {
      "doubleSided": true,
      "name": "HEELSG1SG1",
      "pbrMetallicRoughness": {
        "metallicFactor": 0.0,
        "roughnessFactor": 0.9883
      }
    },
    {
      "doubleSided": true,
      "name": "Maraarm2",
      "pbrMetallicRoughness": {
        "metallicFactor": 0.0,
        "roughnessFactor": 0.9593056257097656
      }
    },
    {
      "doubleSided": true,
      "name": "Marabody3",
      "pbrMetallicRoughness": {
        "metallicFactor": 0.0,
        "roughnessFactor": 0.9593056257097656
      }
    },
    {
      "doubleSided": true,
      "name": "Maraeye2",
      "pbrMetallicRoughness": {
        "metallicFactor": 0.0,
        "roughnessFactor": 0.8116392029831679
      }
    },
    {
      "doubleSided": true,
      "name": "Maraface2",
      "pbrMetallicRoughness": {
        "metallicFactor": 0.0,
        "roughnessFactor": 0.9593056257097656
      }
    },
    {
      "doubleSided": true,
      "name": "Maraleg2",
      "pbrMetallicRoughness": {
        "metallicFactor": 0.0,
        "roughnessFactor": 0.9593056257097656
      }
    },
    {
      "doubleSided": true,
      "name": "Maraskin_14skin_13skin_11skin_10poseposeeyelash1",
      "pbrMetallicRoughness": {
        "metallicFactor": 0.0,
        "roughnessFactor": 0.9908200773421363
      }
    },
    {
      "doubleSided": true,
      "name": "Maratooth2",
      "pbrMetallicRoughness": {
        "metallicFactor": 0.0,
        "roughnessFactor": 0.9908200773421363
      }
    },
    {
      "doubleSided": true,
      "name": "W_Shoes_skinSG1SG1SG1",
      "pbrMetallicRoughness": {
        "metallicFactor": 0.0,
        "roughnessFactor": 0.9883
      }
    },
    {
      "doubleSided": true,
      "name": "dummySG1SG1",
      "pbrMetallicRoughness": {
        "metallicFactor": 0.0,
        "roughnessFactor": 0.9827475502465659
      }
    }
  ],
  "meshes": [
    {
      "name": "Object_0",
      "primitives": [
        {
          "attributes": {
            "NORMAL": 1,
            "POSITION": 0,
            "TEXCOORD_0": 2
          },
          "indices": 3,
          "material": 0,
          "mode": 4
        }
      ]
    },
    {
      "name": "Object_1",
      "primitives": [
        {
          "attributes": {
            "NORMAL": 5,
            "POSITION": 4,
            "TEXCOORD_0": 6
          },
          "indices": 7,
          "material": 1,
          "mode": 4
        }
      ]
    },
    {
      "name": "Object_2",
      "primitives": [
        {
          "attributes": {
            "NORMAL": 9,
            "POSITION": 8,
            "TEXCOORD_0": 10
          },
          "indices": 11,
          "material": 2,
          "mode": 4
        }
      ]
    },
    {
      "name": "Object_3",
      "primitives": [
        {
          "attributes": {
            "NORMAL": 13,
            "POSITION": 12,
            "TEXCOORD_0": 14
          },
          "indices": 15,
          "material": 3,
          "mode": 4
        }
      ]
    },
    {
      "name": "Object_4",
      "primitives": [
        {
          "attributes": {
            "NORMAL": 17,
            "POSITION": 16,
            "TEXCOORD_0": 18
          },
          "indices": 19,
          "material": 4,
          "mode": 4
        }
      ]
    },
    {
      "name": "Object_5",
      "primitives": [
        {
          "attributes": {
            "NORMAL": 21,
            "POSITION": 20,
            "TEXCOORD_0": 22
          },
          "indices": 23,
          "material": 5,
          "mode": 4
        }
      ]
    },
    {
      "name": "Object_6",
      "primitives": [
        {
          "attributes": {
            "NORMAL": 25,
            "POSITION": 24,
            "TEXCOORD_0": 26
          },
          "indices": 27,
          "material": 6,
          "mode": 4
        }
      ]
    },
    {
      "name": "Object_7",
      "primitives": [
        {
          "attributes": {
            "NORMAL": 29,
            "POSITION": 28,
            "TEXCOORD_0": 30
          },
          "indices": 31,
          "material": 7,
          "mode": 4
        }
      ]
    },
    {
      "name": "Object_8",
      "primitives": [
        {
          "attributes": {
            "NORMAL": 33,
            "POSITION": 32,
            "TEXCOORD_0": 34
          },
          "indices": 35,
          "material": 8,
          "mode": 4
        }
      ]
    },
    {
      "name": "Object_9",
      "primitives": [
        {
          "attributes": {
            "NORMAL": 37,
            "POSITION": 36,
            "TEXCOORD_0": 38
          },
          "indices": 39,
          "material": 9,
          "mode": 4
        }
      ]
    },
    {
      "name": "Object_10",
      "primitives": [
        {
          "attributes": {
            "NORMAL": 41,
            "POSITION": 40,
            "TEXCOORD_0": 42
          },
          "indices": 43,
          "material": 10,
          "mode": 4
        }
      ]
    },
    {
      "name": "Object_11",
      "primitives": [
        {
          "attributes": {
            "NORMAL": 45,
            "POSITION": 44,
            "TEXCOORD_0": 46
          },
          "indices": 47,
          "material": 11,
          "mode": 4
        }
      ]
    }
  ],
  "nodes": [
    {
      "children": [
        1
      ],
      "matrix": [
        1.0,
        0.0,
        0.0,
        0.0,
        0.0,
        2.220446049250313e-16,
        -1.0,
        0.0,
        0.0,
        1.0,
        2.220446049250313e-16,
        0.0,
        0.0,
        0.0,
        0.0,
        1.0
      ],
      "name": "Sketchfab_model"
    },
    {
      "children": [
        2,
        3,
        4,
        5,
        6,
        7,
        8,
        9,
        10,
        11,
        12,
        13
      ],
      "name": "003.obj.cleaner.materialmerger.gles"
    },
    {
      "mesh": 0,
      "name": "Object_2"
    },
    {
      "mesh": 1,
      "name": "Object_3"
    },
    {
      "mesh": 2,
      "name": "Object_4"
    },
    {
      "mesh": 3,
      "name": "Object_5"
    },
    {
      "mesh": 4,
      "name": "Object_6"
    },
    {
      "mesh": 5,
      "name": "Object_7"
    },
    {
      "mesh": 6,
      "name": "Object_8"
    },
    {
      "mesh": 7,
      "name": "Object_9"
    },
    {
      "mesh": 8,
      "name": "Object_10"
    },
    {
      "mesh": 9,
      "name": "Object_11"
    },
    {
      "mesh": 10,
      "name": "Object_12"
    },
    {
      "mesh": 11,
      "name": "Object_13"
    }
  ],
  "samplers": [
    {
      "magFilter": 9729,
      "minFilter": 9987,
      "wrapS": 10497,
      "wrapT": 10497
    }
  ],
  "scene": 0,
  "scenes": [
    {
      "name": "Sketchfab_Scene",
      "nodes": [
        0
      ]
    }
  ],
  "textures": [
    {
      "sampler": 0,
      "source": 0
    }
  ]
}
